<?xml version="1.0" standalone="no"?>
<!DOCTYPE svg PUBLIC "-//W3C//DTD SVG 20010904//EN"
 "http://www.w3.org/TR/2001/REC-SVG-20010904/DTD/svg10.dtd">
<svg version="1.0" xmlns="http://www.w3.org/2000/svg"
 width="400.000000pt" height="400.000000pt" viewBox="0 0 400.000000 400.000000"
 preserveAspectRatio="xMidYMid meet">
<metadata>
Created by potrace 1.11, written by Peter Selinger 2001-2013
</metadata>
<g transform="translate(0.000000,400.000000) scale(0.100000,-0.100000)"
fill="#000000" stroke="none">
<path d="M1835 3179 c-192 -55 -561 -156 -820 -225 -259 -68 -474 -126 -479
-127 -5 -2 53 -15 130 -30 l139 -26 450 100 c247 55 525 118 618 140 92 21
170 39 172 39 3 0 5 -53 5 -118 l0 -117 -279 -74 c-154 -41 -285 -77 -291 -81
-11 -7 168 -40 217 -40 15 0 101 17 191 38 l162 39 0 -747 0 -748 -182 39
c-101 21 -199 39 -218 39 -50 0 -203 -32 -193 -40 7 -7 566 -140 586 -140 4 0
7 -57 7 -126 l0 -126 -27 6 c-16 3 -300 63 -633 132 l-605 126 -80 -16 c-115
-23 -163 -38 -145 -44 8 -3 393 -92 855 -197 l840 -192 3 192 2 192 293 -68
c160 -38 302 -71 315 -74 22 -5 22 -5 22 120 0 79 4 125 10 125 6 0 136 -31
290 -70 154 -38 282 -70 285 -70 3 0 5 434 5 965 0 710 -3 965 -11 965 -9 0
-259 -73 -571 -166 -17 -5 -18 6 -18 135 0 78 -1 141 -2 141 -2 0 -144 -40
-315 -89 l-313 -88 0 204 0 203 -32 -1 c-18 0 -190 -45 -383 -100z m885 -388
l0 -69 -32 -11 c-44 -14 -427 -121 -433 -121 -11 0 -5 149 6 156 9 5 417 108
452 113 4 0 7 -30 7 -68z m610 -831 c0 -561 -3 -810 -11 -810 -5 0 -104 23
-220 51 l-209 51 2 701 3 701 205 57 c113 32 211 58 218 58 9 1 12 -167 12
-809z m-610 -11 c0 -615 -1 -650 -17 -645 -87 28 -382 96 -413 96 l-40 0 0
561 0 560 23 -7 c42 -13 102 -4 262 40 88 24 166 45 173 45 9 1 12 -135 12
-650z m-222 -686 l222 -57 0 -77 0 -77 -32 8 c-18 5 -122 27 -230 51 l-198 42
0 83 c0 46 3 84 8 84 4 0 107 -25 230 -57z"/>
</g>
</svg>
