<?xml version="1.0" standalone="no"?>
<!DOCTYPE svg PUBLIC "-//W3C//DTD SVG 20010904//EN"
 "http://www.w3.org/TR/2001/REC-SVG-20010904/DTD/svg10.dtd">
<svg version="1.0" xmlns="http://www.w3.org/2000/svg"
 width="1640.000000pt" height="1640.000000pt" viewBox="0 0 1640.000000 1640.000000"
 preserveAspectRatio="xMidYMid meet">
<metadata>
Created by potrace 1.14, written by Peter Selinger 2001-2017
</metadata>
<g transform="translate(0.000000,1640.000000) scale(0.100000,-0.100000)"
fill="#000000" stroke="none">
<path d="M3810 10782 c-176 -135 -403 -308 -419 -317 -9 -5 -19 -14 -22 -18
-3 -5 -18 -16 -31 -25 -24 -16 -146 -108 -193 -146 -11 -9 -38 -29 -60 -46
-22 -16 -44 -33 -50 -38 -5 -4 -57 -43 -115 -86 -58 -44 -117 -89 -131 -100
-15 -12 -39 -30 -53 -40 -15 -11 -36 -27 -46 -35 -10 -9 -31 -25 -46 -36 -29
-21 -302 -228 -319 -242 -5 -5 -57 -44 -115 -87 -58 -44 -117 -89 -132 -100
-38 -30 -65 -51 -285 -216 -109 -82 -203 -153 -208 -158 -23 -19 -205 -158
-225 -172 -21 -14 -33 -24 -79 -62 -12 -10 -25 -18 -31 -18 -5 0 -13 -6 -17
-13 -4 -7 -33 -31 -63 -52 -30 -22 -62 -45 -70 -52 -8 -7 -33 -26 -55 -42 -22
-17 -44 -34 -50 -39 -5 -4 -32 -24 -59 -45 -27 -20 -47 -37 -45 -38 2 -1 147
-2 322 -3 l317 -1 58 45 c32 25 74 56 92 70 93 69 175 135 178 142 2 4 10 8
17 8 7 0 15 4 17 8 2 4 62 52 133 107 186 141 206 157 245 188 19 15 40 31 45
35 36 26 133 99 145 110 8 7 51 40 95 73 88 67 93 71 212 162 44 34 112 86
150 114 37 29 113 88 169 130 55 43 116 89 134 103 79 60 168 128 209 161 11
8 32 24 46 35 22 15 115 86 160 122 6 4 84 64 174 132 90 69 173 133 183 143
10 9 21 17 25 17 3 0 14 7 24 16 17 15 20 15 45 -5 24 -19 140 -123 229 -206
18 -16 68 -61 111 -100 42 -38 92 -83 110 -100 39 -37 190 -174 214 -195 38
-33 185 -167 220 -200 20 -19 74 -69 120 -110 46 -41 102 -92 124 -113 23 -22
63 -58 89 -80 27 -23 65 -58 85 -77 38 -36 205 -189 296 -270 27 -25 63 -58
80 -74 17 -15 64 -58 105 -95 41 -36 86 -77 101 -91 14 -14 61 -56 104 -95 43
-38 87 -79 97 -90 19 -19 41 -19 1207 -20 653 -1 1191 1 1195 3 4 2 -18 24
-50 49 -32 24 -68 53 -81 64 -12 10 -24 19 -27 19 -2 0 -46 33 -98 73 -51 39
-108 83 -127 97 -60 45 -105 80 -120 92 -8 7 -31 25 -52 40 -21 15 -45 34 -55
43 -10 8 -50 38 -89 67 -39 29 -72 57 -72 62 -2 8 211 9 1011 3 l248 -2 24 30
c12 16 31 39 41 50 17 18 64 74 129 154 11 14 30 35 43 48 12 13 22 26 22 28
0 3 8 14 18 24 9 11 22 26 29 34 18 22 216 260 235 282 38 45 56 67 132 159
l79 96 26 -22 c13 -13 34 -32 46 -43 26 -24 112 -103 270 -250 65 -60 126
-117 135 -125 9 -8 65 -60 125 -115 59 -55 118 -109 130 -120 11 -11 68 -63
125 -117 58 -53 129 -118 157 -145 l52 -48 -55 -45 c-31 -25 -61 -50 -67 -55
-7 -6 -48 -40 -92 -75 -44 -36 -82 -67 -85 -70 -5 -5 -97 -81 -134 -110 -10
-8 -26 -22 -35 -30 -9 -9 -38 -33 -66 -55 -27 -22 -52 -42 -55 -45 -3 -3 -41
-34 -85 -70 -44 -35 -85 -69 -91 -75 -7 -5 -29 -23 -49 -40 -21 -16 -43 -35
-49 -40 -6 -6 -33 -28 -61 -50 -27 -22 -59 -48 -70 -57 -11 -9 -30 -25 -42
-35 -12 -10 -36 -29 -53 -43 -18 -14 -40 -32 -49 -41 -9 -8 -38 -33 -66 -55
-27 -21 -52 -41 -55 -44 -10 -10 -77 -66 -115 -95 -21 -16 -43 -35 -49 -40 -6
-6 -24 -20 -40 -33 l-29 -22 294 0 c273 0 1838 0 1957 0 l54 0 121 119 c67 66
161 157 209 203 158 152 520 502 619 598 85 83 447 432 485 468 14 13 118 -64
697 -515 87 -68 162 -123 167 -123 4 0 10 -3 12 -7 4 -10 32 -32 243 -195 66
-51 125 -96 130 -100 6 -5 48 -38 95 -74 47 -35 93 -71 103 -79 9 -8 22 -15
27 -15 6 0 10 -4 10 -8 0 -4 25 -25 55 -47 30 -22 55 -43 55 -47 0 -5 4 -8 10
-8 8 0 123 -87 195 -148 17 -15 54 -18 255 -22 129 -3 255 -3 279 0 l45 5
-125 89 c-68 50 -125 93 -127 98 -2 4 -8 8 -14 8 -6 0 -32 17 -59 38 -26 20
-64 48 -84 62 -20 14 -42 31 -50 38 -7 6 -18 12 -24 12 -6 0 -11 3 -11 8 0 4
-17 18 -38 32 -43 29 -121 85 -141 102 -8 6 -37 27 -65 47 -28 19 -55 38 -61
43 -5 5 -104 77 -220 160 -115 84 -212 154 -215 157 -3 3 -12 11 -21 16 -54
34 -96 64 -108 79 -7 9 -19 16 -27 16 -7 0 -17 6 -21 13 -4 7 -21 21 -38 31
-16 11 -34 23 -40 28 -44 36 -146 108 -154 108 -5 0 -11 4 -13 8 -2 4 -39 33
-83 65 -44 31 -84 60 -90 65 -5 4 -59 44 -120 87 -60 44 -114 83 -120 87 -53
43 -90 68 -106 73 -10 4 -19 10 -19 14 0 4 -29 26 -65 50 l-64 43 -123 -22
c-68 -11 -134 -23 -148 -26 -14 -2 -52 -8 -85 -14 -33 -5 -70 -12 -81 -14 -20
-4 -73 -13 -119 -21 -73 -12 -110 -18 -185 -32 -46 -8 -96 -16 -110 -18 -14
-2 -63 -10 -110 -19 -47 -9 -101 -18 -120 -21 -61 -10 -91 -15 -265 -46 -93
-17 -183 -32 -200 -34 -16 -2 -72 -11 -123 -20 l-93 -17 -32 25 c-18 14 -46
38 -62 53 -17 16 -69 61 -115 101 -47 40 -97 82 -111 95 -28 25 -109 95 -149
128 -14 12 -39 34 -55 48 -17 15 -62 54 -100 87 -38 33 -75 65 -81 70 -6 6
-35 30 -64 55 -30 25 -64 54 -76 65 -12 12 -44 39 -69 60 -26 22 -57 49 -69
60 -13 11 -46 40 -76 65 -29 25 -62 53 -74 63 -11 11 -45 40 -75 65 -57 49
-101 87 -164 144 l-38 34 -212 -3 c-117 -1 -439 -4 -717 -7 -278 -3 -505 -5
-505 -6 0 0 -216 -2 -480 -5 -521 -5 -1590 -16 -1828 -18 -82 -1 -151 1 -154
6 -2 4 -8 5 -12 3 -4 -3 -37 1 -72 9 -36 7 -81 16 -100 19 -19 3 -80 14 -137
25 -125 25 -157 31 -201 37 -18 2 -37 6 -41 9 -4 3 -23 7 -41 10 -19 2 -44 6
-55 9 -20 4 -76 14 -119 21 -11 2 -45 9 -75 15 -30 6 -66 13 -80 15 -14 3 -34
7 -45 9 -49 10 -202 39 -220 42 -11 1 -45 8 -75 13 -60 12 -66 13 -190 37 -47
8 -119 23 -160 31 -41 8 -86 17 -100 18 -14 2 -36 6 -50 9 -29 7 -132 25 -174
32 -16 2 -45 8 -65 14 -20 5 -52 12 -71 14 -19 3 -59 10 -89 16 -29 5 -54 10
-55 10 0 0 -35 -26 -76 -58z"/>
<path d="M39 8176 c-4 -53 -3 -2548 1 -2571 l6 -30 362 0 c238 0 362 3 363 10
1 5 2 593 3 1305 l2 1296 -368 0 c-256 0 -368 -3 -369 -10z"/>
<path d="M974 8176 c2 -6 32 -81 66 -166 34 -85 70 -173 79 -195 10 -22 26
-60 36 -85 10 -25 23 -58 30 -75 7 -16 27 -66 45 -110 17 -44 41 -102 52 -130
11 -27 24 -59 29 -70 4 -11 38 -94 74 -185 37 -91 73 -178 80 -195 7 -16 51
-124 98 -240 87 -214 103 -255 118 -290 36 -86 111 -272 113 -280 1 -5 4 -14
8 -20 3 -5 18 -41 33 -80 15 -38 33 -83 40 -100 7 -16 27 -66 44 -110 33 -83
39 -97 64 -155 9 -19 23 -53 31 -75 l16 -40 441 0 441 0 32 80 c18 44 36 89
41 100 4 11 9 25 11 30 1 6 17 44 34 85 17 41 83 203 146 360 63 157 121 299
129 315 8 17 33 77 55 135 23 58 75 186 115 285 40 99 94 232 119 295 26 63
51 125 56 138 22 51 32 74 95 232 36 91 70 174 75 185 5 11 34 83 65 160 31
77 63 154 71 172 8 17 14 33 14 35 0 3 -166 5 -370 5 l-369 0 -27 -66 c-14
-36 -32 -79 -40 -96 -7 -16 -27 -68 -45 -115 -17 -47 -34 -89 -37 -95 -4 -5
-7 -14 -8 -20 -2 -10 -148 -383 -164 -420 -15 -34 -200 -506 -200 -511 0 -2
-8 -23 -19 -47 -17 -38 -136 -342 -192 -489 -19 -52 -39 -76 -39 -48 0 9 -139
365 -185 475 -6 17 -27 68 -45 115 -18 47 -38 99 -45 115 -7 17 -36 91 -65
165 -28 74 -56 144 -60 155 -5 11 -19 45 -30 75 -12 30 -26 64 -30 75 -39 92
-140 353 -140 360 0 4 -9 26 -20 49 -11 23 -44 104 -74 181 l-54 140 -371 1
c-262 0 -370 -3 -367 -10z"/>
<path d="M4186 8181 c-2 -3 -3 -591 -2 -1306 l1 -1300 363 0 c200 0 366 3 368
7 3 4 5 208 6 452 l0 445 36 1 c35 0 51 0 87 0 8 -1 48 0 89 1 41 0 79 -2 85
-6 6 -3 11 -1 11 5 0 6 4 8 10 5 5 -3 31 -6 57 -5 48 1 72 1 96 -1 29 -1 235
10 272 16 159 23 162 24 225 41 30 9 62 17 71 19 38 8 224 99 246 120 8 8 19
15 25 15 20 0 163 156 198 215 20 33 46 88 59 123 39 110 46 159 44 327 -1
120 -5 153 -28 230 -63 216 -200 370 -423 476 -61 30 -198 75 -257 85 -16 2
-37 7 -45 9 -8 3 -37 7 -65 11 -27 3 -61 8 -75 11 -36 7 -1450 11 -1454 4z
m1344 -511 c81 -27 117 -49 161 -97 63 -69 87 -144 84 -258 -5 -143 -65 -236
-190 -295 -89 -42 -147 -49 -417 -50 l-246 -1 0 358 c-1 196 1 360 4 365 3 4
125 6 272 4 244 -3 273 -5 332 -26z"/>
<path d="M7582 8141 c-11 -25 -55 -131 -97 -236 -41 -104 -80 -199 -85 -210
-5 -11 -48 -117 -96 -235 -47 -118 -93 -227 -100 -242 -8 -15 -14 -30 -14 -33
0 -3 -7 -21 -15 -41 -8 -20 -15 -39 -15 -41 0 -3 -6 -19 -14 -36 -8 -18 -26
-61 -41 -97 -14 -36 -30 -74 -35 -85 -4 -11 -36 -90 -70 -175 -34 -85 -68
-168 -75 -185 -7 -16 -50 -122 -95 -235 -45 -113 -91 -224 -101 -247 -11 -23
-19 -45 -19 -48 0 -3 -9 -27 -21 -53 -40 -92 -47 -108 -85 -207 -21 -55 -44
-111 -50 -124 -7 -14 -11 -27 -9 -31 5 -8 731 -7 739 1 4 4 9 15 11 25 2 11
27 78 55 149 28 72 65 167 82 213 l30 82 578 0 577 0 23 -57 c24 -62 98 -258
135 -358 l22 -60 367 0 c202 -1 369 2 371 5 2 3 -3 19 -10 35 -8 17 -58 138
-111 270 -53 132 -106 265 -119 295 -31 77 -38 94 -40 100 -5 13 -20 50 -41
98 -13 29 -24 59 -24 67 0 8 -5 15 -10 15 -6 0 -9 3 -8 8 3 7 -64 180 -104
269 -10 23 -18 44 -18 48 0 3 -8 24 -19 48 -36 80 -91 215 -91 222 0 4 -6 21
-14 38 -37 81 -76 180 -76 193 0 8 -4 14 -10 14 -5 0 -9 3 -8 8 0 4 -2 16 -7
27 -4 11 -37 92 -72 180 -35 88 -69 171 -75 185 -21 48 -28 66 -99 240 -39 96
-75 189 -81 205 -6 17 -13 32 -15 35 -3 3 -202 5 -443 6 l-438 0 -20 -45z
m492 -656 c2 -5 8 -21 13 -35 6 -14 47 -124 92 -245 45 -121 93 -247 106 -280
58 -147 105 -277 105 -290 0 -8 5 -15 12 -15 6 0 9 -3 5 -6 -3 -4 1 -20 9 -36
9 -17 13 -33 9 -36 -5 -6 -775 -11 -775 -6 0 3 31 90 37 104 3 8 7 17 8 20 1
3 5 12 8 20 4 8 17 44 31 80 36 98 113 301 127 335 6 17 14 39 16 50 2 10 10
30 18 42 9 13 13 23 10 23 -3 0 1 14 10 30 9 17 13 30 9 30 -4 0 -2 6 3 13 5
6 18 35 27 62 10 28 24 64 31 80 7 17 16 41 20 54 4 13 14 40 22 60 l15 35 15
-39 c7 -22 15 -44 17 -50z"/>
<path d="M10842 7381 c-6 -4 -9 -363 -8 -906 l1 -900 420 1 c514 0 559 5 718
78 82 37 170 116 210 186 32 56 60 154 54 186 -2 13 -1 24 2 24 11 0 3 95 -13
158 -19 74 -57 144 -105 193 -43 42 -143 109 -165 109 -8 0 -17 4 -20 9 -4 5
-24 12 -46 16 -22 4 -43 11 -46 16 -3 5 -2 9 3 7 14 -3 73 13 120 34 78 35
160 134 177 216 4 15 9 38 12 52 7 32 7 33 1 113 -15 183 -90 273 -302 368
-11 5 -31 11 -45 13 -14 3 -38 8 -55 11 -16 4 -41 9 -55 12 -38 7 -848 11
-858 4z m787 -205 c116 -16 201 -71 238 -155 22 -48 25 -66 20 -127 -12 -158
-100 -232 -299 -250 -85 -8 -463 -8 -476 0 -10 6 -16 493 -6 526 3 14 35 16
236 14 128 0 257 -4 287 -8z m-137 -741 c196 -3 255 -14 331 -58 85 -50 128
-128 133 -243 5 -122 -26 -210 -96 -271 -14 -13 -31 -23 -37 -23 -7 0 -13 -3
-13 -8 0 -13 -53 -31 -132 -44 -48 -8 -167 -13 -325 -13 l-248 0 0 330 0 330
88 1 c48 1 91 4 94 8 3 3 10 3 14 0 5 -3 91 -7 191 -9z"/>
<path d="M13215 7378 c-8 -5 -15 -14 -15 -21 0 -7 -7 -25 -16 -42 -9 -16 -17
-37 -19 -45 -3 -12 -127 -309 -164 -395 -10 -23 -91 -215 -151 -360 -23 -55
-48 -113 -55 -130 -7 -16 -29 -70 -50 -120 -53 -130 -65 -158 -75 -177 -6 -10
-10 -25 -10 -33 0 -8 -4 -15 -8 -15 -5 0 -9 -6 -9 -12 0 -7 -12 -39 -26 -71
-15 -32 -27 -60 -27 -63 0 -2 -7 -21 -17 -42 -9 -20 -17 -39 -18 -42 -3 -9
-18 -44 -56 -134 -21 -49 -37 -92 -34 -96 2 -3 65 -7 139 -7 139 -1 141 0 151
42 2 6 18 48 37 95 19 47 56 139 82 206 l47 121 449 0 449 0 24 -66 c62 -166
151 -387 159 -392 5 -3 68 -6 139 -6 l131 -1 -7 26 c-6 23 -19 55 -55 137 -5
11 -25 58 -44 105 -45 109 -216 520 -263 630 -59 142 -65 154 -79 184 -8 16
-14 33 -14 37 0 5 -11 32 -24 61 -13 29 -58 136 -100 238 -77 186 -87 210
-112 265 -8 17 -22 53 -33 80 l-19 50 -145 1 c-80 0 -153 -4 -162 -8z m221
-403 c30 -79 42 -109 73 -177 11 -26 21 -52 21 -58 0 -6 4 -18 9 -28 15 -27
191 -459 191 -466 0 -2 -163 -3 -363 -3 l-363 0 23 61 c13 34 28 70 33 81 5
11 53 128 106 260 117 293 131 329 155 382 11 24 19 50 19 58 0 8 5 15 10 15
6 0 9 3 9 8 -10 61 26 -1 77 -133z"/>
<path d="M14538 7366 c-10 -53 0 -1243 10 -1267 6 -15 8 -29 6 -32 -7 -6 35
-149 47 -162 5 -5 9 -17 9 -27 0 -10 5 -18 10 -18 6 0 10 -5 10 -10 0 -41 139
-176 227 -220 37 -19 71 -35 76 -36 4 -1 9 -3 12 -4 3 -1 8 -3 13 -4 4 -2 26
-8 49 -15 44 -12 547 -12 588 1 92 28 235 101 235 120 0 4 6 8 13 8 15 1 94
96 125 151 30 55 70 173 79 240 4 30 8 333 8 674 l0 620 -132 1 c-89 0 -133
-3 -133 -10 -1 -6 -1 -276 -2 -599 -1 -324 -5 -614 -10 -645 -28 -192 -102
-302 -237 -353 -31 -11 -65 -23 -76 -25 -64 -13 -87 -16 -155 -16 -266 1 -401
81 -468 277 -33 96 -35 153 -36 786 l0 586 -132 -1 c-126 0 -133 -1 -136 -20z"/>
<path d="M9651 6350 c-4 -3 -7 -48 -6 -100 l0 -95 353 0 c219 -1 356 3 359 9
8 11 10 186 3 187 -19 4 -703 3 -709 -1z"/>
</g>
</svg>
